<svg xmlns="http://www.w3.org/2000/svg" width="23.328" height="20" viewBox="0 0 23.328 20">
  <path id="パス_642" data-name="パス 642" d="M9.919-11.536a5.707,5.707,0,0,1,2.29.464A5.924,5.924,0,0,1,14.082-9.8a6.043,6.043,0,0,1,1.264,1.878,5.707,5.707,0,0,1,.464,2.29,5.811,5.811,0,0,1-.446,2.255,5.858,5.858,0,0,1-1.281,1.907L4.145,8.464-5.791-1.472A5.858,5.858,0,0,1-7.072-3.379a5.811,5.811,0,0,1-.446-2.255,5.707,5.707,0,0,1,.464-2.29A6.043,6.043,0,0,1-5.791-9.8a5.923,5.923,0,0,1,1.872-1.27,5.707,5.707,0,0,1,2.29-.464A5.6,5.6,0,0,1,.03-11.31a5.606,5.606,0,0,1,1.345.614,7.8,7.8,0,0,1,1.165.9q.551.516,1.13,1.107l.475.487.464-.475q.58-.591,1.13-1.113A7.59,7.59,0,0,1,6.9-10.7,5.606,5.606,0,0,1,8.25-11.31,5.647,5.647,0,0,1,9.919-11.536Z" transform="translate(7.518 11.536)" fill="#f7851e"/>
</svg>
