<svg xmlns="http://www.w3.org/2000/svg" width="23.328" height="20" viewBox="0 0 23.328 20">
  <path id="パス_641" data-name="パス 641" d="M9.919-11.536a5.707,5.707,0,0,1,2.29.464A5.924,5.924,0,0,1,14.082-9.8a6.043,6.043,0,0,1,1.264,1.878,5.707,5.707,0,0,1,.464,2.29,5.811,5.811,0,0,1-.446,2.255,5.858,5.858,0,0,1-1.281,1.907L4.145,8.464-5.791-1.472A5.858,5.858,0,0,1-7.072-3.379a5.811,5.811,0,0,1-.446-2.255,5.707,5.707,0,0,1,.464-2.29A6.043,6.043,0,0,1-5.791-9.8a5.923,5.923,0,0,1,1.872-1.27,5.707,5.707,0,0,1,2.29-.464A5.6,5.6,0,0,1,.03-11.31a5.606,5.606,0,0,1,1.345.614,7.8,7.8,0,0,1,1.165.9q.551.516,1.13,1.107l.475.487.464-.475q.58-.591,1.13-1.113A7.59,7.59,0,0,1,6.9-10.7,5.606,5.606,0,0,1,8.25-11.31,5.647,5.647,0,0,1,9.919-11.536ZM4.145,6.111l8.765-8.765a4.153,4.153,0,0,0,.91-1.362,4.191,4.191,0,0,0,.319-1.617,4.149,4.149,0,0,0-.33-1.652,4.3,4.3,0,0,0-.9-1.345,4.179,4.179,0,0,0-1.339-.9,4.149,4.149,0,0,0-1.652-.33,3.854,3.854,0,0,0-1.443.249,4.823,4.823,0,0,0-1.148.655,8.231,8.231,0,0,0-1,.916q-.475.51-1,1.032L4.145-5.843,2.963-7.014q-.522-.522-1-1.032a8.845,8.845,0,0,0-1-.916A4.677,4.677,0,0,0-.191-9.617a3.865,3.865,0,0,0-1.438-.249,4.059,4.059,0,0,0-1.641.336,4.329,4.329,0,0,0-1.345.91,4.329,4.329,0,0,0-.91,1.345A4.059,4.059,0,0,0-5.86-5.634a4.126,4.126,0,0,0,.325,1.617A4.23,4.23,0,0,0-4.62-2.654Z" transform="translate(7.518 11.536)" fill="#999"/>
</svg>
