<svg xmlns="http://www.w3.org/2000/svg" viewBox="0 0 32.71 22.75"><defs><style>.cls-1{fill:#666;}.cls-2{fill:#fff;}</style></defs><title>アセット 1</title><g id="レイヤー_2" data-name="レイヤー 2"><g id="レイヤー_1-2" data-name="レイヤー 1"><rect class="cls-1" width="32.71" height="22.75"/><path class="cls-2" d="M8.22,17.09a4.05,4.05,0,0,1-4-4.21c0-2.2,2.17-4,4-5,1.85,1,4,2.8,4,5a4.06,4.06,0,0,1-4,4.21m12.32-4.26c0-2.2,2.18-3.95,4-5,1.85,1.05,4,2.8,4,5a4,4,0,1,1-8,0m12.17-9a18.49,18.49,0,0,0-8.28,1.87,17.55,17.55,0,0,0-8.08-1.87A17.6,17.6,0,0,0,8.26,5.71,18.36,18.36,0,0,0,0,3.84V5.71A16.59,16.59,0,0,1,6.22,6.89c-2,1.35-4,3.41-4,6a6.11,6.11,0,0,0,6.06,6,6,6,0,0,0,5.93-6c0-2.58-1.86-4.63-3.88-6a16,16,0,0,1,12.08,0c-2,1.35-3.88,3.41-3.88,6a6,6,0,0,0,5.93,6,6.08,6.08,0,0,0,6-6c0-2.58-2-4.63-4-6a16.61,16.61,0,0,1,6.23-1.18V3.84Z"/></g></g></svg>